<svg xmlns="http://www.w3.org/2000/svg" viewBox="0 0 1140 1020"><rect width="1140" height="1020" fill="#0b0f0a"/><text x="570" y="40" text-anchor="middle" font-family="monospace" font-size="22" font-weight="bold" fill="#33ff66">holdtrue &#8212; how it works</text><rect x="380" y="64" width="380" height="50" rx="9" fill="#0e140d" stroke="#c8d8cd" stroke-width="2"/><text x="570" y="90" text-anchor="middle" font-family="monospace" font-size="19" font-weight="bold" fill="#c8d8cd">intent  (natural language)</text><line x1="570" y1="114" x2="570" y2="140" stroke="#2bbf57" stroke-width="2"/><polygon points="564,140 576,140 570,150" fill="#2bbf57"/><rect x="360" y="150" width="420" height="70" rx="9" fill="#0e140d" stroke="#33ff66" stroke-width="2"/><text x="570" y="176" text-anchor="middle" font-family="monospace" font-size="19" font-weight="bold" fill="#33ff66">contract author</text><text x="570" y="202" text-anchor="middle" font-family="monospace" font-size="14.5" fill="#c8d8cd">a separate LLM context</text><line x1="570" y1="220" x2="570" y2="248" stroke="#2bbf57" stroke-width="2"/><polygon points="564,248 576,248 570,258" fill="#2bbf57"/><text x="584" y="243" font-family="monospace" font-size="13.5" fill="#6f8478">writes</text><rect x="240" y="258" width="660" height="138" rx="9" fill="#0e140d" stroke="#33ff66" stroke-width="2"/><text x="570" y="284" text-anchor="middle" font-family="monospace" font-size="19" font-weight="bold" fill="#33ff66">the contract  (you review + approve)</text><text x="570" y="310" text-anchor="middle" font-family="monospace" font-size="14.5" fill="#c8d8cd">types + signature</text><text x="570" y="333" text-anchor="middle" font-family="monospace" font-size="14.5" fill="#c8d8cd">deal + CrossHair spec   (the proof)</text><text x="570" y="356" text-anchor="middle" font-family="monospace" font-size="14.5" fill="#c8d8cd">shown tests   (sampling)</text><text x="570" y="379" text-anchor="middle" font-family="monospace" font-size="14.5" fill="#c8d8cd">private:  held-out tests · reference oracle</text><line x1="570" y1="396" x2="570" y2="442" stroke="#2bbf57" stroke-width="2"/><polygon points="564,442 576,442 570,452" fill="#2bbf57"/><text x="584" y="428" font-family="monospace" font-size="13.5" fill="#6f8478">freeze</text><line x1="40" y1="470" x2="1100" y2="470" stroke="#f3c54e" stroke-width="2" stroke-dasharray="9 7"/><text x="570" y="458" text-anchor="middle" font-family="monospace" font-size="13.5" fill="#f3c54e">the curtain &#8212; the implementer sees only the contract (no intent, no held-out tests, no oracle)</text><line x1="570" y1="470" x2="570" y2="510" stroke="#2bbf57" stroke-width="2"/><polygon points="564,510 576,510 570,520" fill="#2bbf57"/><rect x="360" y="520" width="420" height="70" rx="9" fill="#0e140d" stroke="#33ff66" stroke-width="2"/><text x="570" y="546" text-anchor="middle" font-family="monospace" font-size="19" font-weight="bold" fill="#33ff66">implementer</text><text x="570" y="572" text-anchor="middle" font-family="monospace" font-size="14.5" fill="#c8d8cd">a separate LLM context</text><line x1="570" y1="590" x2="570" y2="618" stroke="#2bbf57" stroke-width="2"/><polygon points="564,618 576,618 570,628" fill="#2bbf57"/><text x="584" y="613" font-family="monospace" font-size="13.5" fill="#6f8478">writes</text><rect x="420" y="628" width="300" height="48" rx="9" fill="#0e140d" stroke="#c8d8cd" stroke-width="2"/><text x="570" y="654" text-anchor="middle" font-family="monospace" font-size="19" font-weight="bold" fill="#c8d8cd">src/   the implementation</text><line x1="570" y1="676" x2="570" y2="714" stroke="#2bbf57" stroke-width="2"/><polygon points="564,714 576,714 570,724" fill="#2bbf57"/><text x="584" y="704" font-family="monospace" font-size="13.5" fill="#6f8478">run the contract</text><rect x="160" y="724" width="820" height="120" rx="9" fill="#0e140d" stroke="#33ff66" stroke-width="2"/><text x="570" y="750" text-anchor="middle" font-family="monospace" font-size="19" font-weight="bold" fill="#33ff66">verify  &#8212;  sandboxed (bubblewrap)</text><rect x="176" y="774" width="148" height="42" rx="7" fill="#0b0f0a" stroke="#2bbf57" stroke-width="1.5"/><text x="250" y="801" text-anchor="middle" font-family="monospace" font-size="13.5" fill="#c8d8cd">types</text><rect x="336" y="774" width="148" height="42" rx="7" fill="#0b0f0a" stroke="#2bbf57" stroke-width="1.5"/><text x="410" y="801" text-anchor="middle" font-family="monospace" font-size="13.5" fill="#c8d8cd">CrossHair proof</text><rect x="496" y="774" width="148" height="42" rx="7" fill="#0b0f0a" stroke="#2bbf57" stroke-width="1.5"/><text x="570" y="801" text-anchor="middle" font-family="monospace" font-size="13.5" fill="#c8d8cd">properties</text><rect x="656" y="774" width="148" height="42" rx="7" fill="#0b0f0a" stroke="#2bbf57" stroke-width="1.5"/><text x="730" y="801" text-anchor="middle" font-family="monospace" font-size="13.5" fill="#c8d8cd">negative-probe</text><rect x="816" y="774" width="148" height="42" rx="7" fill="#0b0f0a" stroke="#2bbf57" stroke-width="1.5"/><text x="890" y="801" text-anchor="middle" font-family="monospace" font-size="13.5" fill="#c8d8cd">mutation</text><line x1="570" y1="844" x2="570" y2="888" stroke="#2bbf57" stroke-width="2"/><polygon points="564,888 576,888 570,898" fill="#2bbf57"/><text x="584" y="875" font-family="monospace" font-size="13.5" fill="#6f8478">classify</text><rect x="190" y="898" width="760" height="84" rx="9" fill="#0e140d" stroke="#c8d8cd" stroke-width="2"/><text x="570" y="924" text-anchor="middle" font-family="monospace" font-size="18" font-weight="bold" fill="#c8d8cd">evidence report   (per intent)</text><rect x="232" y="938" width="216" height="32" rx="6" fill="#0b0f0a" stroke="#33ff66" stroke-width="2"/><text x="340" y="959" text-anchor="middle" font-family="monospace" font-size="14" font-weight="bold" fill="#33ff66">GUARANTEED</text><rect x="462" y="938" width="216" height="32" rx="6" fill="#0b0f0a" stroke="#f3c54e" stroke-width="2"/><text x="570" y="959" text-anchor="middle" font-family="monospace" font-size="14" font-weight="bold" fill="#f3c54e">UNGUARANTEED</text><rect x="692" y="938" width="216" height="32" rx="6" fill="#0b0f0a" stroke="#ff5f5f" stroke-width="2"/><text x="800" y="959" text-anchor="middle" font-family="monospace" font-size="14" font-weight="bold" fill="#ff5f5f">FAILED</text></svg>